<mxfile host="app.diagrams.net" modified="2023-07-16T13:16:24.005Z" agent="Mozilla/5.0 (Windows NT 10.0; WOW64) AppleWebKit/537.36 (KHTML, like Gecko) Chrome/80.0.3987.87 Safari/537.36 SE 2.X MetaSr 1.0" version="21.6.2" etag="FUdlIAITkGrgpuZQSyn2" type="github">
  <diagram name="第 1 页" id="PtlEiQmd55rJlm-ZIfuo">
    <mxGraphModel>
      <root>
        <mxCell id="0" />
        <mxCell id="1" parent="0" />
      </root>
    </mxGraphModel>
  </diagram>
</mxfile>
